<?xml version="1.0" encoding="UTF-8" standalone="no"?><svg xmlns="http://www.w3.org/2000/svg" xmlns:xlink="http://www.w3.org/1999/xlink" contentScriptType="application/ecmascript" contentStyleType="text/css" height="678px" preserveAspectRatio="none" style="width:344px;height:678px;" version="1.1" viewBox="0 0 344 678" width="344px" zoomAndPan="magnify"><defs><filter height="300%" id="f1h1ebnt5nxr9s" width="300%" x="-1" y="-1"><feGaussianBlur result="blurOut" stdDeviation="2.0"/><feColorMatrix in="blurOut" result="blurOut2" type="matrix" values="0 0 0 0 0 0 0 0 0 0 0 0 0 0 0 0 0 0 .4 0"/><feOffset dx="4.0" dy="4.0" in="blurOut2" result="blurOut3"/><feBlend in="SourceGraphic" in2="blurOut3" mode="normal"/></filter></defs><g><line style="stroke: #A80036; stroke-width: 1.0; stroke-dasharray: 5.0,5.0;" x1="36" x2="36" y1="38.2969" y2="638.6875"/><line style="stroke: #A80036; stroke-width: 1.0; stroke-dasharray: 5.0,5.0;" x1="296.5" x2="296.5" y1="38.2969" y2="638.6875"/><rect fill="#FEFECE" filter="url(#f1h1ebnt5nxr9s)" height="30.2969" style="stroke: #A80036; stroke-width: 1.5;" width="53" x="8" y="3"/><text fill="#000000" font-family="sans-serif" font-size="14" lengthAdjust="spacingAndGlyphs" textLength="39" x="15" y="22.9951">Client</text><rect fill="#FEFECE" filter="url(#f1h1ebnt5nxr9s)" height="30.2969" style="stroke: #A80036; stroke-width: 1.5;" width="53" x="8" y="637.6875"/><text fill="#000000" font-family="sans-serif" font-size="14" lengthAdjust="spacingAndGlyphs" textLength="39" x="15" y="657.6826">Client</text><rect fill="#FEFECE" filter="url(#f1h1ebnt5nxr9s)" height="30.2969" style="stroke: #A80036; stroke-width: 1.5;" width="58" x="265.5" y="3"/><text fill="#000000" font-family="sans-serif" font-size="14" lengthAdjust="spacingAndGlyphs" textLength="44" x="272.5" y="22.9951">Server</text><rect fill="#FEFECE" filter="url(#f1h1ebnt5nxr9s)" height="30.2969" style="stroke: #A80036; stroke-width: 1.5;" width="58" x="265.5" y="637.6875"/><text fill="#000000" font-family="sans-serif" font-size="14" lengthAdjust="spacingAndGlyphs" textLength="44" x="272.5" y="657.6826">Server</text><rect fill="#EEEEEE" filter="url(#f1h1ebnt5nxr9s)" height="3" style="stroke: #EEEEEE; stroke-width: 1.0;" width="329.5" x="3" y="68.8633"/><line style="stroke: #000000; stroke-width: 1.0;" x1="3" x2="332.5" y1="68.8633" y2="68.8633"/><line style="stroke: #000000; stroke-width: 1.0;" x1="3" x2="332.5" y1="71.8633" y2="71.8633"/><rect fill="#EEEEEE" filter="url(#f1h1ebnt5nxr9s)" height="23.1328" style="stroke: #000000; stroke-width: 2.0;" width="133" x="101.25" y="58.2969"/><text fill="#000000" font-family="sans-serif" font-size="13" font-weight="bold" lengthAdjust="spacingAndGlyphs" textLength="114" x="107.25" y="74.3638">TCP handshake</text><polygon fill="#A80036" points="284.5,108.5625,294.5,112.5625,284.5,116.5625,288.5,112.5625" style="stroke: #A80036; stroke-width: 1.0;"/><line style="stroke: #A80036; stroke-width: 1.0;" x1="36.5" x2="290.5" y1="112.5625" y2="112.5625"/><text fill="#000000" font-family="sans-serif" font-size="13" lengthAdjust="spacingAndGlyphs" textLength="36" x="43.5" y="107.4966">[SYN]</text><polygon fill="#A80036" points="47.5,137.6953,37.5,141.6953,47.5,145.6953,43.5,141.6953" style="stroke: #A80036; stroke-width: 1.0;"/><line style="stroke: #A80036; stroke-width: 1.0;" x1="41.5" x2="295.5" y1="141.6953" y2="141.6953"/><text fill="#000000" font-family="sans-serif" font-size="13" lengthAdjust="spacingAndGlyphs" textLength="70" x="53.5" y="136.6294">[SYN, ACK]</text><polygon fill="#A80036" points="284.5,166.8281,294.5,170.8281,284.5,174.8281,288.5,170.8281" style="stroke: #A80036; stroke-width: 1.0;"/><line style="stroke: #A80036; stroke-width: 1.0;" x1="36.5" x2="290.5" y1="170.8281" y2="170.8281"/><text fill="#000000" font-family="sans-serif" font-size="13" lengthAdjust="spacingAndGlyphs" textLength="36" x="43.5" y="165.7622">[ACK]</text><rect fill="#EEEEEE" filter="url(#f1h1ebnt5nxr9s)" height="3" style="stroke: #EEEEEE; stroke-width: 1.0;" width="329.5" x="3" y="199.3945"/><line style="stroke: #000000; stroke-width: 1.0;" x1="3" x2="332.5" y1="199.3945" y2="199.3945"/><line style="stroke: #000000; stroke-width: 1.0;" x1="3" x2="332.5" y1="202.3945" y2="202.3945"/><rect fill="#EEEEEE" filter="url(#f1h1ebnt5nxr9s)" height="23.1328" style="stroke: #000000; stroke-width: 2.0;" width="130" x="102.75" y="188.8281"/><text fill="#000000" font-family="sans-serif" font-size="13" font-weight="bold" lengthAdjust="spacingAndGlyphs" textLength="111" x="108.75" y="204.895">TLS handshake</text><polygon fill="#A80036" points="284.5,239.0938,294.5,243.0938,284.5,247.0938,288.5,243.0938" style="stroke: #A80036; stroke-width: 1.0;"/><line style="stroke: #A80036; stroke-width: 1.0;" x1="36.5" x2="290.5" y1="243.0938" y2="243.0938"/><text fill="#000000" font-family="sans-serif" font-size="13" lengthAdjust="spacingAndGlyphs" textLength="72" x="43.5" y="238.0278">Client Hello</text><polygon fill="#A80036" points="47.5,268.2266,37.5,272.2266,47.5,276.2266,43.5,272.2266" style="stroke: #A80036; stroke-width: 1.0;"/><line style="stroke: #A80036; stroke-width: 1.0;" x1="41.5" x2="295.5" y1="272.2266" y2="272.2266"/><text fill="#000000" font-family="sans-serif" font-size="13" lengthAdjust="spacingAndGlyphs" textLength="236" x="53.5" y="267.1606">Server Hello, Change Cipher Spec, ...</text><polygon fill="#A80036" points="284.5,297.3594,294.5,301.3594,284.5,305.3594,288.5,301.3594" style="stroke: #A80036; stroke-width: 1.0;"/><line style="stroke: #A80036; stroke-width: 1.0;" x1="36.5" x2="290.5" y1="301.3594" y2="301.3594"/><text fill="#000000" font-family="sans-serif" font-size="13" lengthAdjust="spacingAndGlyphs" textLength="190" x="43.5" y="296.2935">Change Cipher Spec, Finished</text><polygon fill="#A80036" points="284.5,326.4922,294.5,330.4922,284.5,334.4922,288.5,330.4922" style="stroke: #A80036; stroke-width: 1.0;"/><line style="stroke: #A80036; stroke-width: 1.0;" x1="36.5" x2="290.5" y1="330.4922" y2="330.4922"/><text fill="#000000" font-family="sans-serif" font-size="13" lengthAdjust="spacingAndGlyphs" textLength="31" x="43.5" y="325.4263">PING</text><polygon fill="#A80036" points="47.5,355.625,37.5,359.625,47.5,363.625,43.5,359.625" style="stroke: #A80036; stroke-width: 1.0;"/><line style="stroke: #A80036; stroke-width: 1.0;" x1="41.5" x2="295.5" y1="359.625" y2="359.625"/><text fill="#000000" font-family="sans-serif" font-size="13" lengthAdjust="spacingAndGlyphs" textLength="122" x="53.5" y="354.5591">New Session Ticket</text><polygon fill="#A80036" points="47.5,384.7578,37.5,388.7578,47.5,392.7578,43.5,388.7578" style="stroke: #A80036; stroke-width: 1.0;"/><line style="stroke: #A80036; stroke-width: 1.0;" x1="41.5" x2="295.5" y1="388.7578" y2="388.7578"/><text fill="#000000" font-family="sans-serif" font-size="13" lengthAdjust="spacingAndGlyphs" textLength="122" x="53.5" y="383.6919">New Session Ticket</text><polygon fill="#A80036" points="47.5,413.8906,37.5,417.8906,47.5,421.8906,43.5,417.8906" style="stroke: #A80036; stroke-width: 1.0;"/><line style="stroke: #A80036; stroke-width: 1.0;" x1="41.5" x2="295.5" y1="417.8906" y2="417.8906"/><text fill="#000000" font-family="sans-serif" font-size="13" lengthAdjust="spacingAndGlyphs" textLength="38" x="53.5" y="412.8247">PONG</text><rect fill="#EEEEEE" filter="url(#f1h1ebnt5nxr9s)" height="3" style="stroke: #EEEEEE; stroke-width: 1.0;" width="329.5" x="3" y="446.457"/><line style="stroke: #000000; stroke-width: 1.0;" x1="3" x2="332.5" y1="446.457" y2="446.457"/><line style="stroke: #000000; stroke-width: 1.0;" x1="3" x2="332.5" y1="449.457" y2="449.457"/><rect fill="#EEEEEE" filter="url(#f1h1ebnt5nxr9s)" height="23.1328" style="stroke: #000000; stroke-width: 2.0;" width="121" x="107.25" y="435.8906"/><text fill="#000000" font-family="sans-serif" font-size="13" font-weight="bold" lengthAdjust="spacingAndGlyphs" textLength="102" x="113.25" y="451.9575">TLS shutdown</text><polygon fill="#A80036" points="47.5,486.1563,37.5,490.1563,47.5,494.1563,43.5,490.1563" style="stroke: #A80036; stroke-width: 1.0;"/><line style="stroke: #A80036; stroke-width: 1.0;" x1="41.5" x2="295.5" y1="490.1563" y2="490.1563"/><text fill="#000000" font-family="sans-serif" font-size="13" lengthAdjust="spacingAndGlyphs" textLength="114" x="53.5" y="485.0903">Alert: Close Notify</text><polygon fill="#A80036" points="284.5,515.2891,294.5,519.2891,284.5,523.2891,288.5,519.2891" style="stroke: #A80036; stroke-width: 1.0;"/><line style="stroke: #A80036; stroke-width: 1.0;" x1="36.5" x2="290.5" y1="519.2891" y2="519.2891"/><text fill="#000000" font-family="sans-serif" font-size="13" lengthAdjust="spacingAndGlyphs" textLength="114" x="43.5" y="514.2231">Alert: Close Notify</text><rect fill="#EEEEEE" filter="url(#f1h1ebnt5nxr9s)" height="3" style="stroke: #EEEEEE; stroke-width: 1.0;" width="329.5" x="3" y="547.8555"/><line style="stroke: #000000; stroke-width: 1.0;" x1="3" x2="332.5" y1="547.8555" y2="547.8555"/><line style="stroke: #000000; stroke-width: 1.0;" x1="3" x2="332.5" y1="550.8555" y2="550.8555"/><rect fill="#EEEEEE" filter="url(#f1h1ebnt5nxr9s)" height="23.1328" style="stroke: #000000; stroke-width: 2.0;" width="124" x="105.75" y="537.2891"/><text fill="#000000" font-family="sans-serif" font-size="13" font-weight="bold" lengthAdjust="spacingAndGlyphs" textLength="105" x="111.75" y="553.356">TCP shutdown</text><polygon fill="#A80036" points="284.5,587.5547,294.5,591.5547,284.5,595.5547,288.5,591.5547" style="stroke: #A80036; stroke-width: 1.0;"/><line style="stroke: #A80036; stroke-width: 1.0;" x1="36.5" x2="290.5" y1="591.5547" y2="591.5547"/><text fill="#000000" font-family="sans-serif" font-size="13" lengthAdjust="spacingAndGlyphs" textLength="64" x="43.5" y="586.4888">[FIN, ACK]</text><polygon fill="#A80036" points="47.5,616.6875,37.5,620.6875,47.5,624.6875,43.5,620.6875" style="stroke: #A80036; stroke-width: 1.0;"/><line style="stroke: #A80036; stroke-width: 1.0;" x1="41.5" x2="295.5" y1="620.6875" y2="620.6875"/><text fill="#000000" font-family="sans-serif" font-size="13" lengthAdjust="spacingAndGlyphs" textLength="64" x="53.5" y="615.6216">[FIN, ACK]</text><!--MD5=[2a660eab4c17504e268bb10636151ce6]
@startuml
participant "Client" as c
participant "Server" as s
== TCP handshake ==
c -> s: [SYN]
c <- s: [SYN, ACK]
c -> s: [ACK]
== TLS handshake ==
c -> s: Client Hello
c <- s: Server Hello, Change Cipher Spec, ...
c -> s: Change Cipher Spec, Finished
c -> s: PING
c <- s: New Session Ticket
c <- s: New Session Ticket
c <- s: PONG
== TLS shutdown ==
c <- s: Alert: Close Notify
c -> s: Alert: Close Notify
== TCP shutdown ==
c -> s: [FIN, ACK]
c <- s: [FIN, ACK]
@enduml

PlantUML version 1.2020.01(Sun Feb 16 18:40:32 CET 2020)
(GPL source distribution)
Java Runtime: OpenJDK Runtime Environment
JVM: OpenJDK 64-Bit Server VM
Java Version: 11.0.7+10-post-Ubuntu-2ubuntu218.04
Operating System: Linux
Default Encoding: UTF-8
Language: en
Country: US
--></g></svg>