<?xml version="1.0" encoding="UTF-8" standalone="no"?><svg xmlns="http://www.w3.org/2000/svg" xmlns:xlink="http://www.w3.org/1999/xlink" contentScriptType="application/ecmascript" contentStyleType="text/css" height="745px" preserveAspectRatio="none" style="width:403px;height:745px;" version="1.1" viewBox="0 0 403 745" width="403px" zoomAndPan="magnify"><defs><filter height="300%" id="ftdvjmuxyefx2" width="300%" x="-1" y="-1"><feGaussianBlur result="blurOut" stdDeviation="2.0"/><feColorMatrix in="blurOut" result="blurOut2" type="matrix" values="0 0 0 0 0 0 0 0 0 0 0 0 0 0 0 0 0 0 .4 0"/><feOffset dx="4.0" dy="4.0" in="blurOut2" result="blurOut3"/><feBlend in="SourceGraphic" in2="blurOut3" mode="normal"/></filter></defs><g><line style="stroke: #A80036; stroke-width: 1.0;" x1="36" x2="36" y1="38.2969" y2="48.2969"/><line style="stroke: #A80036; stroke-width: 1.0; stroke-dasharray: 1.0,4.0;" x1="36" x2="36" y1="48.2969" y2="89.1016"/><line style="stroke: #A80036; stroke-width: 1.0;" x1="36" x2="36" y1="89.1016" y2="118.2344"/><line style="stroke: #A80036; stroke-width: 1.0; stroke-dasharray: 1.0,4.0;" x1="36" x2="36" y1="118.2344" y2="159.0391"/><line style="stroke: #A80036; stroke-width: 1.0;" x1="36" x2="36" y1="159.0391" y2="188.1719"/><line style="stroke: #A80036; stroke-width: 1.0; stroke-dasharray: 1.0,4.0;" x1="36" x2="36" y1="188.1719" y2="228.9766"/><line style="stroke: #A80036; stroke-width: 1.0;" x1="36" x2="36" y1="228.9766" y2="258.1094"/><line style="stroke: #A80036; stroke-width: 1.0; stroke-dasharray: 1.0,4.0;" x1="36" x2="36" y1="258.1094" y2="298.9141"/><line style="stroke: #A80036; stroke-width: 1.0;" x1="36" x2="36" y1="298.9141" y2="328.0469"/><line style="stroke: #A80036; stroke-width: 1.0; stroke-dasharray: 1.0,4.0;" x1="36" x2="36" y1="328.0469" y2="368.8516"/><line style="stroke: #A80036; stroke-width: 1.0;" x1="36" x2="36" y1="368.8516" y2="397.9844"/><line style="stroke: #A80036; stroke-width: 1.0; stroke-dasharray: 1.0,4.0;" x1="36" x2="36" y1="397.9844" y2="438.7891"/><line style="stroke: #A80036; stroke-width: 1.0;" x1="36" x2="36" y1="438.7891" y2="526.1875"/><line style="stroke: #A80036; stroke-width: 1.0; stroke-dasharray: 1.0,4.0;" x1="36" x2="36" y1="526.1875" y2="566.9922"/><line style="stroke: #A80036; stroke-width: 1.0;" x1="36" x2="36" y1="566.9922" y2="625.2578"/><line style="stroke: #A80036; stroke-width: 1.0; stroke-dasharray: 1.0,4.0;" x1="36" x2="36" y1="625.2578" y2="666.0625"/><line style="stroke: #A80036; stroke-width: 1.0;" x1="36" x2="36" y1="666.0625" y2="705.1953"/><line style="stroke: #A80036; stroke-width: 1.0;" x1="365.5" x2="365.5" y1="38.2969" y2="48.2969"/><line style="stroke: #A80036; stroke-width: 1.0; stroke-dasharray: 1.0,4.0;" x1="365.5" x2="365.5" y1="48.2969" y2="89.1016"/><line style="stroke: #A80036; stroke-width: 1.0;" x1="365.5" x2="365.5" y1="89.1016" y2="118.2344"/><line style="stroke: #A80036; stroke-width: 1.0; stroke-dasharray: 1.0,4.0;" x1="365.5" x2="365.5" y1="118.2344" y2="159.0391"/><line style="stroke: #A80036; stroke-width: 1.0;" x1="365.5" x2="365.5" y1="159.0391" y2="188.1719"/><line style="stroke: #A80036; stroke-width: 1.0; stroke-dasharray: 1.0,4.0;" x1="365.5" x2="365.5" y1="188.1719" y2="228.9766"/><line style="stroke: #A80036; stroke-width: 1.0;" x1="365.5" x2="365.5" y1="228.9766" y2="258.1094"/><line style="stroke: #A80036; stroke-width: 1.0; stroke-dasharray: 1.0,4.0;" x1="365.5" x2="365.5" y1="258.1094" y2="298.9141"/><line style="stroke: #A80036; stroke-width: 1.0;" x1="365.5" x2="365.5" y1="298.9141" y2="328.0469"/><line style="stroke: #A80036; stroke-width: 1.0; stroke-dasharray: 1.0,4.0;" x1="365.5" x2="365.5" y1="328.0469" y2="368.8516"/><line style="stroke: #A80036; stroke-width: 1.0;" x1="365.5" x2="365.5" y1="368.8516" y2="397.9844"/><line style="stroke: #A80036; stroke-width: 1.0; stroke-dasharray: 1.0,4.0;" x1="365.5" x2="365.5" y1="397.9844" y2="438.7891"/><line style="stroke: #A80036; stroke-width: 1.0;" x1="365.5" x2="365.5" y1="438.7891" y2="526.1875"/><line style="stroke: #A80036; stroke-width: 1.0; stroke-dasharray: 1.0,4.0;" x1="365.5" x2="365.5" y1="526.1875" y2="566.9922"/><line style="stroke: #A80036; stroke-width: 1.0;" x1="365.5" x2="365.5" y1="566.9922" y2="625.2578"/><line style="stroke: #A80036; stroke-width: 1.0; stroke-dasharray: 1.0,4.0;" x1="365.5" x2="365.5" y1="625.2578" y2="666.0625"/><line style="stroke: #A80036; stroke-width: 1.0;" x1="365.5" x2="365.5" y1="666.0625" y2="705.1953"/><rect fill="#FEFECE" filter="url(#ftdvjmuxyefx2)" height="30.2969" style="stroke: #A80036; stroke-width: 1.5;" width="53" x="8" y="3"/><text fill="#000000" font-family="sans-serif" font-size="14" lengthAdjust="spacingAndGlyphs" textLength="39" x="15" y="22.9951">Client</text><rect fill="#FEFECE" filter="url(#ftdvjmuxyefx2)" height="30.2969" style="stroke: #A80036; stroke-width: 1.5;" width="53" x="8" y="704.1953"/><text fill="#000000" font-family="sans-serif" font-size="14" lengthAdjust="spacingAndGlyphs" textLength="39" x="15" y="724.1904">Client</text><rect fill="#FEFECE" filter="url(#ftdvjmuxyefx2)" height="30.2969" style="stroke: #A80036; stroke-width: 1.5;" width="58" x="334.5" y="3"/><text fill="#000000" font-family="sans-serif" font-size="14" lengthAdjust="spacingAndGlyphs" textLength="44" x="341.5" y="22.9951">Server</text><rect fill="#FEFECE" filter="url(#ftdvjmuxyefx2)" height="30.2969" style="stroke: #A80036; stroke-width: 1.5;" width="58" x="334.5" y="704.1953"/><text fill="#000000" font-family="sans-serif" font-size="14" lengthAdjust="spacingAndGlyphs" textLength="44" x="341.5" y="724.1904">Server</text><text fill="#000000" font-family="sans-serif" font-size="11" lengthAdjust="spacingAndGlyphs" textLength="32" x="185" y="72.5073">0.000</text><polygon fill="#A80036" points="353.5,106.2344,363.5,110.2344,353.5,114.2344,357.5,110.2344" style="stroke: #A80036; stroke-width: 1.0;"/><line style="stroke: #A80036; stroke-width: 1.0;" x1="36.5" x2="359.5" y1="110.2344" y2="110.2344"/><text fill="#000000" font-family="sans-serif" font-size="13" lengthAdjust="spacingAndGlyphs" textLength="305" x="43.5" y="105.1685">[SYN] + Client-Hello, Change Cipher Spec, PING</text><text fill="#000000" font-family="sans-serif" font-size="11" lengthAdjust="spacingAndGlyphs" textLength="32" x="185" y="142.4448">0.010</text><polygon fill="#A80036" points="47.5,176.1719,37.5,180.1719,47.5,184.1719,43.5,180.1719" style="stroke: #A80036; stroke-width: 1.0;"/><line style="stroke: #A80036; stroke-width: 1.0;" x1="41.5" x2="364.5" y1="180.1719" y2="180.1719"/><text fill="#000000" font-family="sans-serif" font-size="13" lengthAdjust="spacingAndGlyphs" textLength="70" x="53.5" y="175.106">[SYN, ACK]</text><text fill="#000000" font-family="sans-serif" font-size="11" lengthAdjust="spacingAndGlyphs" textLength="32" x="185" y="212.3823">0.011</text><polygon fill="#A80036" points="47.5,246.1094,37.5,250.1094,47.5,254.1094,43.5,250.1094" style="stroke: #A80036; stroke-width: 1.0;"/><line style="stroke: #A80036; stroke-width: 1.0;" x1="41.5" x2="364.5" y1="250.1094" y2="250.1094"/><text fill="#000000" font-family="sans-serif" font-size="13" lengthAdjust="spacingAndGlyphs" textLength="276" x="53.5" y="245.0435">Server Hello, Change Cipher Spec, Finished</text><text fill="#000000" font-family="sans-serif" font-size="11" lengthAdjust="spacingAndGlyphs" textLength="32" x="185" y="282.3198">0.019</text><polygon fill="#A80036" points="353.5,316.0469,363.5,320.0469,353.5,324.0469,357.5,320.0469" style="stroke: #A80036; stroke-width: 1.0;"/><line style="stroke: #A80036; stroke-width: 1.0;" x1="36.5" x2="359.5" y1="320.0469" y2="320.0469"/><text fill="#000000" font-family="sans-serif" font-size="13" lengthAdjust="spacingAndGlyphs" textLength="36" x="43.5" y="314.981">[ACK]</text><text fill="#000000" font-family="sans-serif" font-size="11" lengthAdjust="spacingAndGlyphs" textLength="32" x="185" y="352.2573">0.022</text><polygon fill="#A80036" points="353.5,385.9844,363.5,389.9844,353.5,393.9844,357.5,389.9844" style="stroke: #A80036; stroke-width: 1.0;"/><line style="stroke: #A80036; stroke-width: 1.0;" x1="36.5" x2="359.5" y1="389.9844" y2="389.9844"/><text fill="#000000" font-family="sans-serif" font-size="13" lengthAdjust="spacingAndGlyphs" textLength="170" x="43.5" y="384.9185">End of Early Data, Finished</text><text fill="#000000" font-family="sans-serif" font-size="11" lengthAdjust="spacingAndGlyphs" textLength="32" x="185" y="422.1948">0.032</text><polygon fill="#A80036" points="47.5,455.9219,37.5,459.9219,47.5,463.9219,43.5,459.9219" style="stroke: #A80036; stroke-width: 1.0;"/><line style="stroke: #A80036; stroke-width: 1.0;" x1="41.5" x2="364.5" y1="459.9219" y2="459.9219"/><text fill="#000000" font-family="sans-serif" font-size="13" lengthAdjust="spacingAndGlyphs" textLength="122" x="53.5" y="454.856">New Session Ticket</text><polygon fill="#A80036" points="47.5,485.0547,37.5,489.0547,47.5,493.0547,43.5,489.0547" style="stroke: #A80036; stroke-width: 1.0;"/><line style="stroke: #A80036; stroke-width: 1.0;" x1="41.5" x2="364.5" y1="489.0547" y2="489.0547"/><text fill="#000000" font-family="sans-serif" font-size="13" lengthAdjust="spacingAndGlyphs" textLength="38" x="53.5" y="483.9888">PONG</text><polygon fill="#A80036" points="47.5,514.1875,37.5,518.1875,47.5,522.1875,43.5,518.1875" style="stroke: #A80036; stroke-width: 1.0;"/><line style="stroke: #A80036; stroke-width: 1.0;" x1="41.5" x2="364.5" y1="518.1875" y2="518.1875"/><text fill="#000000" font-family="sans-serif" font-size="13" lengthAdjust="spacingAndGlyphs" textLength="114" x="53.5" y="513.1216">Alert: Close Notify</text><text fill="#000000" font-family="sans-serif" font-size="11" lengthAdjust="spacingAndGlyphs" textLength="32" x="185" y="550.3979">0.042</text><polygon fill="#A80036" points="353.5,584.125,363.5,588.125,353.5,592.125,357.5,588.125" style="stroke: #A80036; stroke-width: 1.0;"/><line style="stroke: #A80036; stroke-width: 1.0;" x1="36.5" x2="359.5" y1="588.125" y2="588.125"/><text fill="#000000" font-family="sans-serif" font-size="13" lengthAdjust="spacingAndGlyphs" textLength="114" x="43.5" y="583.0591">Alert: Close Notify</text><polygon fill="#A80036" points="353.5,613.2578,363.5,617.2578,353.5,621.2578,357.5,617.2578" style="stroke: #A80036; stroke-width: 1.0;"/><line style="stroke: #A80036; stroke-width: 1.0;" x1="36.5" x2="359.5" y1="617.2578" y2="617.2578"/><text fill="#000000" font-family="sans-serif" font-size="13" lengthAdjust="spacingAndGlyphs" textLength="30" x="43.5" y="612.1919">[FIN]</text><text fill="#000000" font-family="sans-serif" font-size="11" lengthAdjust="spacingAndGlyphs" textLength="32" x="185" y="649.4683">0.052</text><polygon fill="#A80036" points="47.5,683.1953,37.5,687.1953,47.5,691.1953,43.5,687.1953" style="stroke: #A80036; stroke-width: 1.0;"/><line style="stroke: #A80036; stroke-width: 1.0;" x1="41.5" x2="364.5" y1="687.1953" y2="687.1953"/><text fill="#000000" font-family="sans-serif" font-size="13" lengthAdjust="spacingAndGlyphs" textLength="30" x="53.5" y="682.1294">[FIN]</text><!--MD5=[0b00386405ee5968c8d79ab3e34af9bd]
@startuml
participant "Client" as c
participant "Server" as s
... 0.000 ...
c -> s: [SYN] + Client-Hello, Change Cipher Spec, PING
... 0.010 ...
c <- s: [SYN, ACK]
... 0.011 ...
c <- s: Server Hello, Change Cipher Spec, Finished
... 0.019 ...
c -> s: [ACK]
... 0.022 ...
c -> s: End of Early Data, Finished
... 0.032 ...
c <- s: New Session Ticket
c <- s: PONG
c <- s: Alert: Close Notify
... 0.042 ...
c -> s: Alert: Close Notify
c -> s: [FIN]
... 0.052 ...
c <- s: [FIN]
@enduml

PlantUML version 1.2020.01(Sun Feb 16 18:40:32 CET 2020)
(GPL source distribution)
Java Runtime: OpenJDK Runtime Environment
JVM: OpenJDK 64-Bit Server VM
Java Version: 11.0.7+10-post-Ubuntu-2ubuntu218.04
Operating System: Linux
Default Encoding: UTF-8
Language: en
Country: US
--></g></svg>