<?xml version="1.0" encoding="UTF-8" standalone="no"?><svg xmlns="http://www.w3.org/2000/svg" xmlns:xlink="http://www.w3.org/1999/xlink" contentScriptType="application/ecmascript" contentStyleType="text/css" height="902px" preserveAspectRatio="none" style="width:334px;height:902px;" version="1.1" viewBox="0 0 334 902" width="334px" zoomAndPan="magnify"><defs><filter height="300%" id="fdd55fpshucpj" width="300%" x="-1" y="-1"><feGaussianBlur result="blurOut" stdDeviation="2.0"/><feColorMatrix in="blurOut" result="blurOut2" type="matrix" values="0 0 0 0 0 0 0 0 0 0 0 0 0 0 0 0 0 0 .4 0"/><feOffset dx="4.0" dy="4.0" in="blurOut2" result="blurOut3"/><feBlend in="SourceGraphic" in2="blurOut3" mode="normal"/></filter></defs><g><line style="stroke: #A80036; stroke-width: 1.0;" x1="36" x2="36" y1="38.2969" y2="48.2969"/><line style="stroke: #A80036; stroke-width: 1.0; stroke-dasharray: 1.0,4.0;" x1="36" x2="36" y1="48.2969" y2="89.1016"/><line style="stroke: #A80036; stroke-width: 1.0;" x1="36" x2="36" y1="89.1016" y2="118.2344"/><line style="stroke: #A80036; stroke-width: 1.0; stroke-dasharray: 1.0,4.0;" x1="36" x2="36" y1="118.2344" y2="159.0391"/><line style="stroke: #A80036; stroke-width: 1.0;" x1="36" x2="36" y1="159.0391" y2="188.1719"/><line style="stroke: #A80036; stroke-width: 1.0; stroke-dasharray: 1.0,4.0;" x1="36" x2="36" y1="188.1719" y2="228.9766"/><line style="stroke: #A80036; stroke-width: 1.0;" x1="36" x2="36" y1="228.9766" y2="287.2422"/><line style="stroke: #A80036; stroke-width: 1.0; stroke-dasharray: 1.0,4.0;" x1="36" x2="36" y1="287.2422" y2="328.0469"/><line style="stroke: #A80036; stroke-width: 1.0;" x1="36" x2="36" y1="328.0469" y2="357.1797"/><line style="stroke: #A80036; stroke-width: 1.0; stroke-dasharray: 1.0,4.0;" x1="36" x2="36" y1="357.1797" y2="397.9844"/><line style="stroke: #A80036; stroke-width: 1.0;" x1="36" x2="36" y1="397.9844" y2="427.1172"/><line style="stroke: #A80036; stroke-width: 1.0; stroke-dasharray: 1.0,4.0;" x1="36" x2="36" y1="427.1172" y2="467.9219"/><line style="stroke: #A80036; stroke-width: 1.0;" x1="36" x2="36" y1="467.9219" y2="526.1875"/><line style="stroke: #A80036; stroke-width: 1.0; stroke-dasharray: 1.0,4.0;" x1="36" x2="36" y1="526.1875" y2="566.9922"/><line style="stroke: #A80036; stroke-width: 1.0;" x1="36" x2="36" y1="566.9922" y2="683.5234"/><line style="stroke: #A80036; stroke-width: 1.0; stroke-dasharray: 1.0,4.0;" x1="36" x2="36" y1="683.5234" y2="724.3281"/><line style="stroke: #A80036; stroke-width: 1.0;" x1="36" x2="36" y1="724.3281" y2="782.5938"/><line style="stroke: #A80036; stroke-width: 1.0; stroke-dasharray: 1.0,4.0;" x1="36" x2="36" y1="782.5938" y2="823.3984"/><line style="stroke: #A80036; stroke-width: 1.0;" x1="36" x2="36" y1="823.3984" y2="862.5313"/><line style="stroke: #A80036; stroke-width: 1.0;" x1="296.5" x2="296.5" y1="38.2969" y2="48.2969"/><line style="stroke: #A80036; stroke-width: 1.0; stroke-dasharray: 1.0,4.0;" x1="296.5" x2="296.5" y1="48.2969" y2="89.1016"/><line style="stroke: #A80036; stroke-width: 1.0;" x1="296.5" x2="296.5" y1="89.1016" y2="118.2344"/><line style="stroke: #A80036; stroke-width: 1.0; stroke-dasharray: 1.0,4.0;" x1="296.5" x2="296.5" y1="118.2344" y2="159.0391"/><line style="stroke: #A80036; stroke-width: 1.0;" x1="296.5" x2="296.5" y1="159.0391" y2="188.1719"/><line style="stroke: #A80036; stroke-width: 1.0; stroke-dasharray: 1.0,4.0;" x1="296.5" x2="296.5" y1="188.1719" y2="228.9766"/><line style="stroke: #A80036; stroke-width: 1.0;" x1="296.5" x2="296.5" y1="228.9766" y2="287.2422"/><line style="stroke: #A80036; stroke-width: 1.0; stroke-dasharray: 1.0,4.0;" x1="296.5" x2="296.5" y1="287.2422" y2="328.0469"/><line style="stroke: #A80036; stroke-width: 1.0;" x1="296.5" x2="296.5" y1="328.0469" y2="357.1797"/><line style="stroke: #A80036; stroke-width: 1.0; stroke-dasharray: 1.0,4.0;" x1="296.5" x2="296.5" y1="357.1797" y2="397.9844"/><line style="stroke: #A80036; stroke-width: 1.0;" x1="296.5" x2="296.5" y1="397.9844" y2="427.1172"/><line style="stroke: #A80036; stroke-width: 1.0; stroke-dasharray: 1.0,4.0;" x1="296.5" x2="296.5" y1="427.1172" y2="467.9219"/><line style="stroke: #A80036; stroke-width: 1.0;" x1="296.5" x2="296.5" y1="467.9219" y2="526.1875"/><line style="stroke: #A80036; stroke-width: 1.0; stroke-dasharray: 1.0,4.0;" x1="296.5" x2="296.5" y1="526.1875" y2="566.9922"/><line style="stroke: #A80036; stroke-width: 1.0;" x1="296.5" x2="296.5" y1="566.9922" y2="683.5234"/><line style="stroke: #A80036; stroke-width: 1.0; stroke-dasharray: 1.0,4.0;" x1="296.5" x2="296.5" y1="683.5234" y2="724.3281"/><line style="stroke: #A80036; stroke-width: 1.0;" x1="296.5" x2="296.5" y1="724.3281" y2="782.5938"/><line style="stroke: #A80036; stroke-width: 1.0; stroke-dasharray: 1.0,4.0;" x1="296.5" x2="296.5" y1="782.5938" y2="823.3984"/><line style="stroke: #A80036; stroke-width: 1.0;" x1="296.5" x2="296.5" y1="823.3984" y2="862.5313"/><rect fill="#FEFECE" filter="url(#fdd55fpshucpj)" height="30.2969" style="stroke: #A80036; stroke-width: 1.5;" width="53" x="8" y="3"/><text fill="#000000" font-family="sans-serif" font-size="14" lengthAdjust="spacingAndGlyphs" textLength="39" x="15" y="22.9951">Client</text><rect fill="#FEFECE" filter="url(#fdd55fpshucpj)" height="30.2969" style="stroke: #A80036; stroke-width: 1.5;" width="53" x="8" y="861.5313"/><text fill="#000000" font-family="sans-serif" font-size="14" lengthAdjust="spacingAndGlyphs" textLength="39" x="15" y="881.5264">Client</text><rect fill="#FEFECE" filter="url(#fdd55fpshucpj)" height="30.2969" style="stroke: #A80036; stroke-width: 1.5;" width="58" x="265.5" y="3"/><text fill="#000000" font-family="sans-serif" font-size="14" lengthAdjust="spacingAndGlyphs" textLength="44" x="272.5" y="22.9951">Server</text><rect fill="#FEFECE" filter="url(#fdd55fpshucpj)" height="30.2969" style="stroke: #A80036; stroke-width: 1.5;" width="58" x="265.5" y="861.5313"/><text fill="#000000" font-family="sans-serif" font-size="14" lengthAdjust="spacingAndGlyphs" textLength="44" x="272.5" y="881.5264">Server</text><text fill="#000000" font-family="sans-serif" font-size="11" lengthAdjust="spacingAndGlyphs" textLength="32" x="150.5" y="72.5073">0.000</text><polygon fill="#A80036" points="284.5,106.2344,294.5,110.2344,284.5,114.2344,288.5,110.2344" style="stroke: #A80036; stroke-width: 1.0;"/><line style="stroke: #A80036; stroke-width: 1.0;" x1="36.5" x2="290.5" y1="110.2344" y2="110.2344"/><text fill="#000000" font-family="sans-serif" font-size="13" lengthAdjust="spacingAndGlyphs" textLength="36" x="43.5" y="105.1685">[SYN]</text><text fill="#000000" font-family="sans-serif" font-size="11" lengthAdjust="spacingAndGlyphs" textLength="32" x="150.5" y="142.4448">0.010</text><polygon fill="#A80036" points="47.5,176.1719,37.5,180.1719,47.5,184.1719,43.5,180.1719" style="stroke: #A80036; stroke-width: 1.0;"/><line style="stroke: #A80036; stroke-width: 1.0;" x1="41.5" x2="295.5" y1="180.1719" y2="180.1719"/><text fill="#000000" font-family="sans-serif" font-size="13" lengthAdjust="spacingAndGlyphs" textLength="70" x="53.5" y="175.106">[SYN, ACK]</text><text fill="#000000" font-family="sans-serif" font-size="11" lengthAdjust="spacingAndGlyphs" textLength="32" x="150.5" y="212.3823">0.020</text><polygon fill="#A80036" points="284.5,246.1094,294.5,250.1094,284.5,254.1094,288.5,250.1094" style="stroke: #A80036; stroke-width: 1.0;"/><line style="stroke: #A80036; stroke-width: 1.0;" x1="36.5" x2="290.5" y1="250.1094" y2="250.1094"/><text fill="#000000" font-family="sans-serif" font-size="13" lengthAdjust="spacingAndGlyphs" textLength="36" x="43.5" y="245.0435">[ACK]</text><polygon fill="#A80036" points="284.5,275.2422,294.5,279.2422,284.5,283.2422,288.5,279.2422" style="stroke: #A80036; stroke-width: 1.0;"/><line style="stroke: #A80036; stroke-width: 1.0;" x1="36.5" x2="290.5" y1="279.2422" y2="279.2422"/><text fill="#000000" font-family="sans-serif" font-size="13" lengthAdjust="spacingAndGlyphs" textLength="72" x="43.5" y="274.1763">Client Hello</text><text fill="#000000" font-family="sans-serif" font-size="11" lengthAdjust="spacingAndGlyphs" textLength="32" x="150.5" y="311.4526">0.030</text><polygon fill="#A80036" points="47.5,345.1797,37.5,349.1797,47.5,353.1797,43.5,349.1797" style="stroke: #A80036; stroke-width: 1.0;"/><line style="stroke: #A80036; stroke-width: 1.0;" x1="41.5" x2="295.5" y1="349.1797" y2="349.1797"/><text fill="#000000" font-family="sans-serif" font-size="13" lengthAdjust="spacingAndGlyphs" textLength="36" x="53.5" y="344.1138">[ACK]</text><text fill="#000000" font-family="sans-serif" font-size="11" lengthAdjust="spacingAndGlyphs" textLength="32" x="150.5" y="381.3901">0.038</text><polygon fill="#A80036" points="47.5,415.1172,37.5,419.1172,47.5,423.1172,43.5,419.1172" style="stroke: #A80036; stroke-width: 1.0;"/><line style="stroke: #A80036; stroke-width: 1.0;" x1="41.5" x2="295.5" y1="419.1172" y2="419.1172"/><text fill="#000000" font-family="sans-serif" font-size="13" lengthAdjust="spacingAndGlyphs" textLength="236" x="53.5" y="414.0513">Server Hello, Change Cipher Spec, ...</text><text fill="#000000" font-family="sans-serif" font-size="11" lengthAdjust="spacingAndGlyphs" textLength="32" x="150.5" y="451.3276">0.049</text><polygon fill="#A80036" points="284.5,485.0547,294.5,489.0547,284.5,493.0547,288.5,489.0547" style="stroke: #A80036; stroke-width: 1.0;"/><line style="stroke: #A80036; stroke-width: 1.0;" x1="36.5" x2="290.5" y1="489.0547" y2="489.0547"/><text fill="#000000" font-family="sans-serif" font-size="13" lengthAdjust="spacingAndGlyphs" textLength="190" x="43.5" y="483.9888">Change Cipher Spec, Finished</text><polygon fill="#A80036" points="284.5,514.1875,294.5,518.1875,284.5,522.1875,288.5,518.1875" style="stroke: #A80036; stroke-width: 1.0;"/><line style="stroke: #A80036; stroke-width: 1.0;" x1="36.5" x2="290.5" y1="518.1875" y2="518.1875"/><text fill="#000000" font-family="sans-serif" font-size="13" lengthAdjust="spacingAndGlyphs" textLength="31" x="43.5" y="513.1216">PING</text><text fill="#000000" font-family="sans-serif" font-size="11" lengthAdjust="spacingAndGlyphs" textLength="32" x="150.5" y="550.3979">0.059</text><polygon fill="#A80036" points="47.5,584.125,37.5,588.125,47.5,592.125,43.5,588.125" style="stroke: #A80036; stroke-width: 1.0;"/><line style="stroke: #A80036; stroke-width: 1.0;" x1="41.5" x2="295.5" y1="588.125" y2="588.125"/><text fill="#000000" font-family="sans-serif" font-size="13" lengthAdjust="spacingAndGlyphs" textLength="122" x="53.5" y="583.0591">New Session Ticket</text><polygon fill="#A80036" points="47.5,613.2578,37.5,617.2578,47.5,621.2578,43.5,617.2578" style="stroke: #A80036; stroke-width: 1.0;"/><line style="stroke: #A80036; stroke-width: 1.0;" x1="41.5" x2="295.5" y1="617.2578" y2="617.2578"/><text fill="#000000" font-family="sans-serif" font-size="13" lengthAdjust="spacingAndGlyphs" textLength="122" x="53.5" y="612.1919">New Session Ticket</text><polygon fill="#A80036" points="47.5,642.3906,37.5,646.3906,47.5,650.3906,43.5,646.3906" style="stroke: #A80036; stroke-width: 1.0;"/><line style="stroke: #A80036; stroke-width: 1.0;" x1="41.5" x2="295.5" y1="646.3906" y2="646.3906"/><text fill="#000000" font-family="sans-serif" font-size="13" lengthAdjust="spacingAndGlyphs" textLength="38" x="53.5" y="641.3247">PONG</text><polygon fill="#A80036" points="47.5,671.5234,37.5,675.5234,47.5,679.5234,43.5,675.5234" style="stroke: #A80036; stroke-width: 1.0;"/><line style="stroke: #A80036; stroke-width: 1.0;" x1="41.5" x2="295.5" y1="675.5234" y2="675.5234"/><text fill="#000000" font-family="sans-serif" font-size="13" lengthAdjust="spacingAndGlyphs" textLength="114" x="53.5" y="670.4575">Alert: Close Notify</text><text fill="#000000" font-family="sans-serif" font-size="11" lengthAdjust="spacingAndGlyphs" textLength="32" x="150.5" y="707.7339">0.069</text><polygon fill="#A80036" points="284.5,741.4609,294.5,745.4609,284.5,749.4609,288.5,745.4609" style="stroke: #A80036; stroke-width: 1.0;"/><line style="stroke: #A80036; stroke-width: 1.0;" x1="36.5" x2="290.5" y1="745.4609" y2="745.4609"/><text fill="#000000" font-family="sans-serif" font-size="13" lengthAdjust="spacingAndGlyphs" textLength="114" x="43.5" y="740.395">Alert: Close Notify</text><polygon fill="#A80036" points="284.5,770.5938,294.5,774.5938,284.5,778.5938,288.5,774.5938" style="stroke: #A80036; stroke-width: 1.0;"/><line style="stroke: #A80036; stroke-width: 1.0;" x1="36.5" x2="290.5" y1="774.5938" y2="774.5938"/><text fill="#000000" font-family="sans-serif" font-size="13" lengthAdjust="spacingAndGlyphs" textLength="64" x="43.5" y="769.5278">[FIN, ACK]</text><text fill="#000000" font-family="sans-serif" font-size="11" lengthAdjust="spacingAndGlyphs" textLength="32" x="150.5" y="806.8042">0.079</text><polygon fill="#A80036" points="47.5,840.5313,37.5,844.5313,47.5,848.5313,43.5,844.5313" style="stroke: #A80036; stroke-width: 1.0;"/><line style="stroke: #A80036; stroke-width: 1.0;" x1="41.5" x2="295.5" y1="844.5313" y2="844.5313"/><text fill="#000000" font-family="sans-serif" font-size="13" lengthAdjust="spacingAndGlyphs" textLength="64" x="53.5" y="839.4653">[FIN, ACK]</text><!--MD5=[dc8df48ae8742a9cd9a4e33cd8e49e71]
@startuml
participant "Client" as c
participant "Server" as s
... 0.000 ...
c -> s: [SYN]
... 0.010 ...
c <- s: [SYN, ACK]
... 0.020 ...
c -> s: [ACK]
c -> s: Client Hello
... 0.030 ...
c <- s: [ACK]
... 0.038 ...
c <- s: Server Hello, Change Cipher Spec, ...
... 0.049 ...
c -> s: Change Cipher Spec, Finished
c -> s: PING
... 0.059 ...
c <- s: New Session Ticket
c <- s: New Session Ticket
c <- s: PONG
c <- s: Alert: Close Notify
... 0.069 ...
c -> s: Alert: Close Notify
c -> s: [FIN, ACK]
... 0.079 ...
c <- s: [FIN, ACK]
@enduml

PlantUML version 1.2020.01(Sun Feb 16 18:40:32 CET 2020)
(GPL source distribution)
Java Runtime: OpenJDK Runtime Environment
JVM: OpenJDK 64-Bit Server VM
Java Version: 11.0.7+10-post-Ubuntu-2ubuntu218.04
Operating System: Linux
Default Encoding: UTF-8
Language: en
Country: US
--></g></svg>