<?xml version="1.0" encoding="UTF-8" standalone="no"?><svg xmlns="http://www.w3.org/2000/svg" xmlns:xlink="http://www.w3.org/1999/xlink" contentScriptType="application/ecmascript" contentStyleType="text/css" height="996px" preserveAspectRatio="none" style="width:516px;height:996px;" version="1.1" viewBox="0 0 516 996" width="516px" zoomAndPan="magnify"><defs><filter height="300%" id="f1jmctp3gnsdh2" width="300%" x="-1" y="-1"><feGaussianBlur result="blurOut" stdDeviation="2.0"/><feColorMatrix in="blurOut" result="blurOut2" type="matrix" values="0 0 0 0 0 0 0 0 0 0 0 0 0 0 0 0 0 0 .4 0"/><feOffset dx="4.0" dy="4.0" in="blurOut2" result="blurOut3"/><feBlend in="SourceGraphic" in2="blurOut3" mode="normal"/></filter></defs><g><line style="stroke: #A80036; stroke-width: 1.0;" x1="36" x2="36" y1="38.2969" y2="48.2969"/><line style="stroke: #A80036; stroke-width: 1.0; stroke-dasharray: 1.0,4.0;" x1="36" x2="36" y1="48.2969" y2="89.1016"/><line style="stroke: #A80036; stroke-width: 1.0;" x1="36" x2="36" y1="89.1016" y2="118.2344"/><line style="stroke: #A80036; stroke-width: 1.0; stroke-dasharray: 1.0,4.0;" x1="36" x2="36" y1="118.2344" y2="159.0391"/><line style="stroke: #A80036; stroke-width: 1.0;" x1="36" x2="36" y1="159.0391" y2="188.1719"/><line style="stroke: #A80036; stroke-width: 1.0; stroke-dasharray: 1.0,4.0;" x1="36" x2="36" y1="188.1719" y2="228.9766"/><line style="stroke: #A80036; stroke-width: 1.0;" x1="36" x2="36" y1="228.9766" y2="258.1094"/><line style="stroke: #A80036; stroke-width: 1.0; stroke-dasharray: 1.0,4.0;" x1="36" x2="36" y1="258.1094" y2="298.9141"/><line style="stroke: #A80036; stroke-width: 1.0;" x1="36" x2="36" y1="298.9141" y2="328.0469"/><line style="stroke: #A80036; stroke-width: 1.0; stroke-dasharray: 1.0,4.0;" x1="36" x2="36" y1="328.0469" y2="368.8516"/><line style="stroke: #A80036; stroke-width: 1.0;" x1="36" x2="36" y1="368.8516" y2="397.9844"/><line style="stroke: #A80036; stroke-width: 1.0; stroke-dasharray: 1.0,4.0;" x1="36" x2="36" y1="397.9844" y2="438.7891"/><line style="stroke: #A80036; stroke-width: 1.0;" x1="36" x2="36" y1="438.7891" y2="467.9219"/><line style="stroke: #A80036; stroke-width: 1.0; stroke-dasharray: 1.0,4.0;" x1="36" x2="36" y1="467.9219" y2="508.7266"/><line style="stroke: #A80036; stroke-width: 1.0;" x1="36" x2="36" y1="508.7266" y2="537.8594"/><line style="stroke: #A80036; stroke-width: 1.0; stroke-dasharray: 1.0,4.0;" x1="36" x2="36" y1="537.8594" y2="578.6641"/><line style="stroke: #A80036; stroke-width: 1.0;" x1="36" x2="36" y1="578.6641" y2="607.7969"/><line style="stroke: #A80036; stroke-width: 1.0; stroke-dasharray: 1.0,4.0;" x1="36" x2="36" y1="607.7969" y2="648.6016"/><line style="stroke: #A80036; stroke-width: 1.0;" x1="36" x2="36" y1="648.6016" y2="677.7344"/><line style="stroke: #A80036; stroke-width: 1.0; stroke-dasharray: 1.0,4.0;" x1="36" x2="36" y1="677.7344" y2="718.5391"/><line style="stroke: #A80036; stroke-width: 1.0;" x1="36" x2="36" y1="718.5391" y2="776.8047"/><line style="stroke: #A80036; stroke-width: 1.0; stroke-dasharray: 1.0,4.0;" x1="36" x2="36" y1="776.8047" y2="817.6094"/><line style="stroke: #A80036; stroke-width: 1.0;" x1="36" x2="36" y1="817.6094" y2="875.875"/><line style="stroke: #A80036; stroke-width: 1.0; stroke-dasharray: 1.0,4.0;" x1="36" x2="36" y1="875.875" y2="916.6797"/><line style="stroke: #A80036; stroke-width: 1.0;" x1="36" x2="36" y1="916.6797" y2="955.8125"/><line style="stroke: #A80036; stroke-width: 1.0;" x1="478.5" x2="478.5" y1="38.2969" y2="48.2969"/><line style="stroke: #A80036; stroke-width: 1.0; stroke-dasharray: 1.0,4.0;" x1="478.5" x2="478.5" y1="48.2969" y2="89.1016"/><line style="stroke: #A80036; stroke-width: 1.0;" x1="478.5" x2="478.5" y1="89.1016" y2="118.2344"/><line style="stroke: #A80036; stroke-width: 1.0; stroke-dasharray: 1.0,4.0;" x1="478.5" x2="478.5" y1="118.2344" y2="159.0391"/><line style="stroke: #A80036; stroke-width: 1.0;" x1="478.5" x2="478.5" y1="159.0391" y2="188.1719"/><line style="stroke: #A80036; stroke-width: 1.0; stroke-dasharray: 1.0,4.0;" x1="478.5" x2="478.5" y1="188.1719" y2="228.9766"/><line style="stroke: #A80036; stroke-width: 1.0;" x1="478.5" x2="478.5" y1="228.9766" y2="258.1094"/><line style="stroke: #A80036; stroke-width: 1.0; stroke-dasharray: 1.0,4.0;" x1="478.5" x2="478.5" y1="258.1094" y2="298.9141"/><line style="stroke: #A80036; stroke-width: 1.0;" x1="478.5" x2="478.5" y1="298.9141" y2="328.0469"/><line style="stroke: #A80036; stroke-width: 1.0; stroke-dasharray: 1.0,4.0;" x1="478.5" x2="478.5" y1="328.0469" y2="368.8516"/><line style="stroke: #A80036; stroke-width: 1.0;" x1="478.5" x2="478.5" y1="368.8516" y2="397.9844"/><line style="stroke: #A80036; stroke-width: 1.0; stroke-dasharray: 1.0,4.0;" x1="478.5" x2="478.5" y1="397.9844" y2="438.7891"/><line style="stroke: #A80036; stroke-width: 1.0;" x1="478.5" x2="478.5" y1="438.7891" y2="467.9219"/><line style="stroke: #A80036; stroke-width: 1.0; stroke-dasharray: 1.0,4.0;" x1="478.5" x2="478.5" y1="467.9219" y2="508.7266"/><line style="stroke: #A80036; stroke-width: 1.0;" x1="478.5" x2="478.5" y1="508.7266" y2="537.8594"/><line style="stroke: #A80036; stroke-width: 1.0; stroke-dasharray: 1.0,4.0;" x1="478.5" x2="478.5" y1="537.8594" y2="578.6641"/><line style="stroke: #A80036; stroke-width: 1.0;" x1="478.5" x2="478.5" y1="578.6641" y2="607.7969"/><line style="stroke: #A80036; stroke-width: 1.0; stroke-dasharray: 1.0,4.0;" x1="478.5" x2="478.5" y1="607.7969" y2="648.6016"/><line style="stroke: #A80036; stroke-width: 1.0;" x1="478.5" x2="478.5" y1="648.6016" y2="677.7344"/><line style="stroke: #A80036; stroke-width: 1.0; stroke-dasharray: 1.0,4.0;" x1="478.5" x2="478.5" y1="677.7344" y2="718.5391"/><line style="stroke: #A80036; stroke-width: 1.0;" x1="478.5" x2="478.5" y1="718.5391" y2="776.8047"/><line style="stroke: #A80036; stroke-width: 1.0; stroke-dasharray: 1.0,4.0;" x1="478.5" x2="478.5" y1="776.8047" y2="817.6094"/><line style="stroke: #A80036; stroke-width: 1.0;" x1="478.5" x2="478.5" y1="817.6094" y2="875.875"/><line style="stroke: #A80036; stroke-width: 1.0; stroke-dasharray: 1.0,4.0;" x1="478.5" x2="478.5" y1="875.875" y2="916.6797"/><line style="stroke: #A80036; stroke-width: 1.0;" x1="478.5" x2="478.5" y1="916.6797" y2="955.8125"/><rect fill="#FEFECE" filter="url(#f1jmctp3gnsdh2)" height="30.2969" style="stroke: #A80036; stroke-width: 1.5;" width="53" x="8" y="3"/><text fill="#000000" font-family="sans-serif" font-size="14" lengthAdjust="spacingAndGlyphs" textLength="39" x="15" y="22.9951">Client</text><rect fill="#FEFECE" filter="url(#f1jmctp3gnsdh2)" height="30.2969" style="stroke: #A80036; stroke-width: 1.5;" width="53" x="8" y="954.8125"/><text fill="#000000" font-family="sans-serif" font-size="14" lengthAdjust="spacingAndGlyphs" textLength="39" x="15" y="974.8076">Client</text><rect fill="#FEFECE" filter="url(#f1jmctp3gnsdh2)" height="30.2969" style="stroke: #A80036; stroke-width: 1.5;" width="58" x="447.5" y="3"/><text fill="#000000" font-family="sans-serif" font-size="14" lengthAdjust="spacingAndGlyphs" textLength="44" x="454.5" y="22.9951">Server</text><rect fill="#FEFECE" filter="url(#f1jmctp3gnsdh2)" height="30.2969" style="stroke: #A80036; stroke-width: 1.5;" width="58" x="447.5" y="954.8125"/><text fill="#000000" font-family="sans-serif" font-size="14" lengthAdjust="spacingAndGlyphs" textLength="44" x="454.5" y="974.8076">Server</text><text fill="#000000" font-family="sans-serif" font-size="11" lengthAdjust="spacingAndGlyphs" textLength="32" x="241.5" y="72.5073">0.000</text><polygon fill="#A80036" points="466.5,106.2344,476.5,110.2344,466.5,114.2344,470.5,110.2344" style="stroke: #A80036; stroke-width: 1.0;"/><line style="stroke: #A80036; stroke-width: 1.0;" x1="36.5" x2="472.5" y1="110.2344" y2="110.2344"/><text fill="#000000" font-family="sans-serif" font-size="13" lengthAdjust="spacingAndGlyphs" textLength="36" x="43.5" y="105.1685">[SYN]</text><text fill="#000000" font-family="sans-serif" font-size="11" lengthAdjust="spacingAndGlyphs" textLength="32" x="241.5" y="142.4448">0.010</text><polygon fill="#A80036" points="47.5,176.1719,37.5,180.1719,47.5,184.1719,43.5,180.1719" style="stroke: #A80036; stroke-width: 1.0;"/><line style="stroke: #A80036; stroke-width: 1.0;" x1="41.5" x2="477.5" y1="180.1719" y2="180.1719"/><text fill="#000000" font-family="sans-serif" font-size="13" lengthAdjust="spacingAndGlyphs" textLength="70" x="53.5" y="175.106">[SYN, ACK]</text><text fill="#000000" font-family="sans-serif" font-size="11" lengthAdjust="spacingAndGlyphs" textLength="32" x="241.5" y="212.3823">0.020</text><polygon fill="#A80036" points="466.5,246.1094,476.5,250.1094,466.5,254.1094,470.5,250.1094" style="stroke: #A80036; stroke-width: 1.0;"/><line style="stroke: #A80036; stroke-width: 1.0;" x1="36.5" x2="472.5" y1="250.1094" y2="250.1094"/><text fill="#000000" font-family="sans-serif" font-size="13" lengthAdjust="spacingAndGlyphs" textLength="36" x="43.5" y="245.0435">[ACK]</text><text fill="#000000" font-family="sans-serif" font-size="11" lengthAdjust="spacingAndGlyphs" textLength="32" x="241.5" y="282.3198">0.020</text><polygon fill="#A80036" points="466.5,316.0469,476.5,320.0469,466.5,324.0469,470.5,320.0469" style="stroke: #A80036; stroke-width: 1.0;"/><line style="stroke: #A80036; stroke-width: 1.0;" x1="36.5" x2="472.5" y1="320.0469" y2="320.0469"/><text fill="#000000" font-family="sans-serif" font-size="13" lengthAdjust="spacingAndGlyphs" textLength="114" x="43.5" y="314.981">TLSv1 Client Hello</text><text fill="#000000" font-family="sans-serif" font-size="11" lengthAdjust="spacingAndGlyphs" textLength="32" x="241.5" y="352.2573">0.030</text><polygon fill="#A80036" points="47.5,385.9844,37.5,389.9844,47.5,393.9844,43.5,389.9844" style="stroke: #A80036; stroke-width: 1.0;"/><line style="stroke: #A80036; stroke-width: 1.0;" x1="41.5" x2="477.5" y1="389.9844" y2="389.9844"/><text fill="#000000" font-family="sans-serif" font-size="13" lengthAdjust="spacingAndGlyphs" textLength="36" x="53.5" y="384.9185">[ACK]</text><text fill="#000000" font-family="sans-serif" font-size="11" lengthAdjust="spacingAndGlyphs" textLength="32" x="241.5" y="422.1948">0.037</text><polygon fill="#A80036" points="47.5,455.9219,37.5,459.9219,47.5,463.9219,43.5,459.9219" style="stroke: #A80036; stroke-width: 1.0;"/><line style="stroke: #A80036; stroke-width: 1.0;" x1="41.5" x2="477.5" y1="459.9219" y2="459.9219"/><text fill="#000000" font-family="sans-serif" font-size="13" lengthAdjust="spacingAndGlyphs" textLength="418" x="53.5" y="454.856">Server Hello, Certificate, Server Key Exchange, Server Hello Done</text><text fill="#000000" font-family="sans-serif" font-size="11" lengthAdjust="spacingAndGlyphs" textLength="32" x="241.5" y="492.1323">0.048</text><polygon fill="#A80036" points="466.5,525.8594,476.5,529.8594,466.5,533.8594,470.5,529.8594" style="stroke: #A80036; stroke-width: 1.0;"/><line style="stroke: #A80036; stroke-width: 1.0;" x1="36.5" x2="472.5" y1="529.8594" y2="529.8594"/><text fill="#000000" font-family="sans-serif" font-size="13" lengthAdjust="spacingAndGlyphs" textLength="327" x="43.5" y="524.7935">Client Key Exchange, Change Cipher Spec, Finished</text><text fill="#000000" font-family="sans-serif" font-size="11" lengthAdjust="spacingAndGlyphs" textLength="32" x="241.5" y="562.0698">0.058</text><polygon fill="#A80036" points="47.5,595.7969,37.5,599.7969,47.5,603.7969,43.5,599.7969" style="stroke: #A80036; stroke-width: 1.0;"/><line style="stroke: #A80036; stroke-width: 1.0;" x1="41.5" x2="477.5" y1="599.7969" y2="599.7969"/><text fill="#000000" font-family="sans-serif" font-size="13" lengthAdjust="spacingAndGlyphs" textLength="320" x="53.5" y="594.731">New Session Ticket, Change Cipher Spec, Finished</text><text fill="#000000" font-family="sans-serif" font-size="11" lengthAdjust="spacingAndGlyphs" textLength="32" x="241.5" y="632.0073">0.069</text><polygon fill="#A80036" points="466.5,665.7344,476.5,669.7344,466.5,673.7344,470.5,669.7344" style="stroke: #A80036; stroke-width: 1.0;"/><line style="stroke: #A80036; stroke-width: 1.0;" x1="36.5" x2="472.5" y1="669.7344" y2="669.7344"/><text fill="#000000" font-family="sans-serif" font-size="13" lengthAdjust="spacingAndGlyphs" textLength="218" x="43.5" y="664.6685">Application Data, Application Data</text><text fill="#000000" font-family="sans-serif" font-size="11" lengthAdjust="spacingAndGlyphs" textLength="32" x="241.5" y="701.9448">0.079</text><polygon fill="#A80036" points="47.5,735.6719,37.5,739.6719,47.5,743.6719,43.5,739.6719" style="stroke: #A80036; stroke-width: 1.0;"/><line style="stroke: #A80036; stroke-width: 1.0;" x1="41.5" x2="477.5" y1="739.6719" y2="739.6719"/><text fill="#000000" font-family="sans-serif" font-size="13" lengthAdjust="spacingAndGlyphs" textLength="218" x="53.5" y="734.606">Application Data, Application Data</text><polygon fill="#A80036" points="47.5,764.8047,37.5,768.8047,47.5,772.8047,43.5,768.8047" style="stroke: #A80036; stroke-width: 1.0;"/><line style="stroke: #A80036; stroke-width: 1.0;" x1="41.5" x2="477.5" y1="768.8047" y2="768.8047"/><text fill="#000000" font-family="sans-serif" font-size="13" lengthAdjust="spacingAndGlyphs" textLength="114" x="53.5" y="763.7388">Alert: Close Notify</text><text fill="#000000" font-family="sans-serif" font-size="11" lengthAdjust="spacingAndGlyphs" textLength="32" x="241.5" y="801.0151">0.089</text><polygon fill="#A80036" points="466.5,834.7422,476.5,838.7422,466.5,842.7422,470.5,838.7422" style="stroke: #A80036; stroke-width: 1.0;"/><line style="stroke: #A80036; stroke-width: 1.0;" x1="36.5" x2="472.5" y1="838.7422" y2="838.7422"/><text fill="#000000" font-family="sans-serif" font-size="13" lengthAdjust="spacingAndGlyphs" textLength="114" x="43.5" y="833.6763">Alert: Close Notify</text><polygon fill="#A80036" points="466.5,863.875,476.5,867.875,466.5,871.875,470.5,867.875" style="stroke: #A80036; stroke-width: 1.0;"/><line style="stroke: #A80036; stroke-width: 1.0;" x1="36.5" x2="472.5" y1="867.875" y2="867.875"/><text fill="#000000" font-family="sans-serif" font-size="13" lengthAdjust="spacingAndGlyphs" textLength="64" x="43.5" y="862.8091">[FIN, ACK]</text><text fill="#000000" font-family="sans-serif" font-size="11" lengthAdjust="spacingAndGlyphs" textLength="32" x="241.5" y="900.0854">0.099</text><polygon fill="#A80036" points="47.5,933.8125,37.5,937.8125,47.5,941.8125,43.5,937.8125" style="stroke: #A80036; stroke-width: 1.0;"/><line style="stroke: #A80036; stroke-width: 1.0;" x1="41.5" x2="477.5" y1="937.8125" y2="937.8125"/><text fill="#000000" font-family="sans-serif" font-size="13" lengthAdjust="spacingAndGlyphs" textLength="64" x="53.5" y="932.7466">[FIN, ACK]</text><!--MD5=[ada21e221f1aaeb6c192c60135a88047]
@startuml
participant "Client" as c
participant "Server" as s
... 0.000 ...
c -> s: [SYN]
... 0.010 ...
c <- s: [SYN, ACK]
... 0.020 ...
c -> s: [ACK]
... 0.020 ...
c -> s: TLSv1 Client Hello
... 0.030 ...
c <- s: [ACK]
... 0.037 ...
c <- s: Server Hello, Certificate, Server Key Exchange, Server Hello Done
... 0.048 ...
c -> s: Client Key Exchange, Change Cipher Spec, Finished
... 0.058 ...
c <- s: New Session Ticket, Change Cipher Spec, Finished
... 0.069 ...
c -> s: Application Data, Application Data
... 0.079 ...
c <- s: Application Data, Application Data
c <- s: Alert: Close Notify
... 0.089 ...
c -> s: Alert: Close Notify
c -> s: [FIN, ACK]
... 0.099 ...
c <- s: [FIN, ACK]
@enduml

PlantUML version 1.2020.01(Sun Feb 16 18:40:32 CET 2020)
(GPL source distribution)
Java Runtime: OpenJDK Runtime Environment
JVM: OpenJDK 64-Bit Server VM
Java Version: 11.0.7+10-post-Ubuntu-2ubuntu218.04
Operating System: Linux
Default Encoding: UTF-8
Language: en
Country: US
--></g></svg>