<?xml version="1.0" encoding="UTF-8" standalone="no"?><svg xmlns="http://www.w3.org/2000/svg" xmlns:xlink="http://www.w3.org/1999/xlink" contentScriptType="application/ecmascript" contentStyleType="text/css" height="774px" preserveAspectRatio="none" style="width:374px;height:774px;" version="1.1" viewBox="0 0 374 774" width="374px" zoomAndPan="magnify"><defs><filter height="300%" id="f1iehj6lnmzc8a" width="300%" x="-1" y="-1"><feGaussianBlur result="blurOut" stdDeviation="2.0"/><feColorMatrix in="blurOut" result="blurOut2" type="matrix" values="0 0 0 0 0 0 0 0 0 0 0 0 0 0 0 0 0 0 .4 0"/><feOffset dx="4.0" dy="4.0" in="blurOut2" result="blurOut3"/><feBlend in="SourceGraphic" in2="blurOut3" mode="normal"/></filter></defs><g><line style="stroke: #A80036; stroke-width: 1.0;" x1="36" x2="36" y1="38.2969" y2="48.2969"/><line style="stroke: #A80036; stroke-width: 1.0; stroke-dasharray: 1.0,4.0;" x1="36" x2="36" y1="48.2969" y2="89.1016"/><line style="stroke: #A80036; stroke-width: 1.0;" x1="36" x2="36" y1="89.1016" y2="118.2344"/><line style="stroke: #A80036; stroke-width: 1.0; stroke-dasharray: 1.0,4.0;" x1="36" x2="36" y1="118.2344" y2="159.0391"/><line style="stroke: #A80036; stroke-width: 1.0;" x1="36" x2="36" y1="159.0391" y2="188.1719"/><line style="stroke: #A80036; stroke-width: 1.0; stroke-dasharray: 1.0,4.0;" x1="36" x2="36" y1="188.1719" y2="228.9766"/><line style="stroke: #A80036; stroke-width: 1.0;" x1="36" x2="36" y1="228.9766" y2="287.2422"/><line style="stroke: #A80036; stroke-width: 1.0; stroke-dasharray: 1.0,4.0;" x1="36" x2="36" y1="287.2422" y2="328.0469"/><line style="stroke: #A80036; stroke-width: 1.0;" x1="36" x2="36" y1="328.0469" y2="357.1797"/><line style="stroke: #A80036; stroke-width: 1.0; stroke-dasharray: 1.0,4.0;" x1="36" x2="36" y1="357.1797" y2="397.9844"/><line style="stroke: #A80036; stroke-width: 1.0;" x1="36" x2="36" y1="397.9844" y2="427.1172"/><line style="stroke: #A80036; stroke-width: 1.0; stroke-dasharray: 1.0,4.0;" x1="36" x2="36" y1="427.1172" y2="467.9219"/><line style="stroke: #A80036; stroke-width: 1.0;" x1="36" x2="36" y1="467.9219" y2="555.3203"/><line style="stroke: #A80036; stroke-width: 1.0; stroke-dasharray: 1.0,4.0;" x1="36" x2="36" y1="555.3203" y2="596.125"/><line style="stroke: #A80036; stroke-width: 1.0;" x1="36" x2="36" y1="596.125" y2="654.3906"/><line style="stroke: #A80036; stroke-width: 1.0; stroke-dasharray: 1.0,4.0;" x1="36" x2="36" y1="654.3906" y2="695.1953"/><line style="stroke: #A80036; stroke-width: 1.0;" x1="36" x2="36" y1="695.1953" y2="734.3281"/><line style="stroke: #A80036; stroke-width: 1.0;" x1="336.5" x2="336.5" y1="38.2969" y2="48.2969"/><line style="stroke: #A80036; stroke-width: 1.0; stroke-dasharray: 1.0,4.0;" x1="336.5" x2="336.5" y1="48.2969" y2="89.1016"/><line style="stroke: #A80036; stroke-width: 1.0;" x1="336.5" x2="336.5" y1="89.1016" y2="118.2344"/><line style="stroke: #A80036; stroke-width: 1.0; stroke-dasharray: 1.0,4.0;" x1="336.5" x2="336.5" y1="118.2344" y2="159.0391"/><line style="stroke: #A80036; stroke-width: 1.0;" x1="336.5" x2="336.5" y1="159.0391" y2="188.1719"/><line style="stroke: #A80036; stroke-width: 1.0; stroke-dasharray: 1.0,4.0;" x1="336.5" x2="336.5" y1="188.1719" y2="228.9766"/><line style="stroke: #A80036; stroke-width: 1.0;" x1="336.5" x2="336.5" y1="228.9766" y2="287.2422"/><line style="stroke: #A80036; stroke-width: 1.0; stroke-dasharray: 1.0,4.0;" x1="336.5" x2="336.5" y1="287.2422" y2="328.0469"/><line style="stroke: #A80036; stroke-width: 1.0;" x1="336.5" x2="336.5" y1="328.0469" y2="357.1797"/><line style="stroke: #A80036; stroke-width: 1.0; stroke-dasharray: 1.0,4.0;" x1="336.5" x2="336.5" y1="357.1797" y2="397.9844"/><line style="stroke: #A80036; stroke-width: 1.0;" x1="336.5" x2="336.5" y1="397.9844" y2="427.1172"/><line style="stroke: #A80036; stroke-width: 1.0; stroke-dasharray: 1.0,4.0;" x1="336.5" x2="336.5" y1="427.1172" y2="467.9219"/><line style="stroke: #A80036; stroke-width: 1.0;" x1="336.5" x2="336.5" y1="467.9219" y2="555.3203"/><line style="stroke: #A80036; stroke-width: 1.0; stroke-dasharray: 1.0,4.0;" x1="336.5" x2="336.5" y1="555.3203" y2="596.125"/><line style="stroke: #A80036; stroke-width: 1.0;" x1="336.5" x2="336.5" y1="596.125" y2="654.3906"/><line style="stroke: #A80036; stroke-width: 1.0; stroke-dasharray: 1.0,4.0;" x1="336.5" x2="336.5" y1="654.3906" y2="695.1953"/><line style="stroke: #A80036; stroke-width: 1.0;" x1="336.5" x2="336.5" y1="695.1953" y2="734.3281"/><rect fill="#FEFECE" filter="url(#f1iehj6lnmzc8a)" height="30.2969" style="stroke: #A80036; stroke-width: 1.5;" width="53" x="8" y="3"/><text fill="#000000" font-family="sans-serif" font-size="14" lengthAdjust="spacingAndGlyphs" textLength="39" x="15" y="22.9951">Client</text><rect fill="#FEFECE" filter="url(#f1iehj6lnmzc8a)" height="30.2969" style="stroke: #A80036; stroke-width: 1.5;" width="53" x="8" y="733.3281"/><text fill="#000000" font-family="sans-serif" font-size="14" lengthAdjust="spacingAndGlyphs" textLength="39" x="15" y="753.3232">Client</text><rect fill="#FEFECE" filter="url(#f1iehj6lnmzc8a)" height="30.2969" style="stroke: #A80036; stroke-width: 1.5;" width="58" x="305.5" y="3"/><text fill="#000000" font-family="sans-serif" font-size="14" lengthAdjust="spacingAndGlyphs" textLength="44" x="312.5" y="22.9951">Server</text><rect fill="#FEFECE" filter="url(#f1iehj6lnmzc8a)" height="30.2969" style="stroke: #A80036; stroke-width: 1.5;" width="58" x="305.5" y="733.3281"/><text fill="#000000" font-family="sans-serif" font-size="14" lengthAdjust="spacingAndGlyphs" textLength="44" x="312.5" y="753.3232">Server</text><text fill="#000000" font-family="sans-serif" font-size="11" lengthAdjust="spacingAndGlyphs" textLength="32" x="170.5" y="72.5073">0.000</text><polygon fill="#A80036" points="324.5,106.2344,334.5,110.2344,324.5,114.2344,328.5,110.2344" style="stroke: #A80036; stroke-width: 1.0;"/><line style="stroke: #A80036; stroke-width: 1.0;" x1="36.5" x2="330.5" y1="110.2344" y2="110.2344"/><text fill="#000000" font-family="sans-serif" font-size="13" lengthAdjust="spacingAndGlyphs" textLength="36" x="43.5" y="105.1685">[SYN]</text><text fill="#000000" font-family="sans-serif" font-size="11" lengthAdjust="spacingAndGlyphs" textLength="32" x="170.5" y="142.4448">0.010</text><polygon fill="#A80036" points="47.5,176.1719,37.5,180.1719,47.5,184.1719,43.5,180.1719" style="stroke: #A80036; stroke-width: 1.0;"/><line style="stroke: #A80036; stroke-width: 1.0;" x1="41.5" x2="335.5" y1="180.1719" y2="180.1719"/><text fill="#000000" font-family="sans-serif" font-size="13" lengthAdjust="spacingAndGlyphs" textLength="70" x="53.5" y="175.106">[SYN, ACK]</text><text fill="#000000" font-family="sans-serif" font-size="11" lengthAdjust="spacingAndGlyphs" textLength="32" x="170.5" y="212.3823">0.020</text><polygon fill="#A80036" points="324.5,246.1094,334.5,250.1094,324.5,254.1094,328.5,250.1094" style="stroke: #A80036; stroke-width: 1.0;"/><line style="stroke: #A80036; stroke-width: 1.0;" x1="36.5" x2="330.5" y1="250.1094" y2="250.1094"/><text fill="#000000" font-family="sans-serif" font-size="13" lengthAdjust="spacingAndGlyphs" textLength="36" x="43.5" y="245.0435">[ACK]</text><polygon fill="#A80036" points="324.5,275.2422,334.5,279.2422,324.5,283.2422,328.5,279.2422" style="stroke: #A80036; stroke-width: 1.0;"/><line style="stroke: #A80036; stroke-width: 1.0;" x1="36.5" x2="330.5" y1="279.2422" y2="279.2422"/><text fill="#000000" font-family="sans-serif" font-size="13" lengthAdjust="spacingAndGlyphs" textLength="249" x="43.5" y="274.1763">Client Hello, Change Cipher Spec, PING</text><text fill="#000000" font-family="sans-serif" font-size="11" lengthAdjust="spacingAndGlyphs" textLength="32" x="170.5" y="311.4526">0.031</text><polygon fill="#A80036" points="47.5,345.1797,37.5,349.1797,47.5,353.1797,43.5,349.1797" style="stroke: #A80036; stroke-width: 1.0;"/><line style="stroke: #A80036; stroke-width: 1.0;" x1="41.5" x2="335.5" y1="349.1797" y2="349.1797"/><text fill="#000000" font-family="sans-serif" font-size="13" lengthAdjust="spacingAndGlyphs" textLength="276" x="53.5" y="344.1138">Server Hello, Change Cipher Spec, Finished</text><text fill="#000000" font-family="sans-serif" font-size="11" lengthAdjust="spacingAndGlyphs" textLength="32" x="170.5" y="381.3901">0.042</text><polygon fill="#A80036" points="324.5,415.1172,334.5,419.1172,324.5,423.1172,328.5,419.1172" style="stroke: #A80036; stroke-width: 1.0;"/><line style="stroke: #A80036; stroke-width: 1.0;" x1="36.5" x2="330.5" y1="419.1172" y2="419.1172"/><text fill="#000000" font-family="sans-serif" font-size="13" lengthAdjust="spacingAndGlyphs" textLength="170" x="43.5" y="414.0513">End of Early Data, Finished</text><text fill="#000000" font-family="sans-serif" font-size="11" lengthAdjust="spacingAndGlyphs" textLength="32" x="170.5" y="451.3276">0.052</text><polygon fill="#A80036" points="47.5,485.0547,37.5,489.0547,47.5,493.0547,43.5,489.0547" style="stroke: #A80036; stroke-width: 1.0;"/><line style="stroke: #A80036; stroke-width: 1.0;" x1="41.5" x2="335.5" y1="489.0547" y2="489.0547"/><text fill="#000000" font-family="sans-serif" font-size="13" lengthAdjust="spacingAndGlyphs" textLength="122" x="53.5" y="483.9888">New Session Ticket</text><polygon fill="#A80036" points="47.5,514.1875,37.5,518.1875,47.5,522.1875,43.5,518.1875" style="stroke: #A80036; stroke-width: 1.0;"/><line style="stroke: #A80036; stroke-width: 1.0;" x1="41.5" x2="335.5" y1="518.1875" y2="518.1875"/><text fill="#000000" font-family="sans-serif" font-size="13" lengthAdjust="spacingAndGlyphs" textLength="38" x="53.5" y="513.1216">PONG</text><polygon fill="#A80036" points="47.5,543.3203,37.5,547.3203,47.5,551.3203,43.5,547.3203" style="stroke: #A80036; stroke-width: 1.0;"/><line style="stroke: #A80036; stroke-width: 1.0;" x1="41.5" x2="335.5" y1="547.3203" y2="547.3203"/><text fill="#000000" font-family="sans-serif" font-size="13" lengthAdjust="spacingAndGlyphs" textLength="114" x="53.5" y="542.2544">Alert: Close Notify</text><text fill="#000000" font-family="sans-serif" font-size="11" lengthAdjust="spacingAndGlyphs" textLength="32" x="170.5" y="579.5308">0.062</text><polygon fill="#A80036" points="324.5,613.2578,334.5,617.2578,324.5,621.2578,328.5,617.2578" style="stroke: #A80036; stroke-width: 1.0;"/><line style="stroke: #A80036; stroke-width: 1.0;" x1="36.5" x2="330.5" y1="617.2578" y2="617.2578"/><text fill="#000000" font-family="sans-serif" font-size="13" lengthAdjust="spacingAndGlyphs" textLength="114" x="43.5" y="612.1919">Alert: Close Notify</text><polygon fill="#A80036" points="324.5,642.3906,334.5,646.3906,324.5,650.3906,328.5,646.3906" style="stroke: #A80036; stroke-width: 1.0;"/><line style="stroke: #A80036; stroke-width: 1.0;" x1="36.5" x2="330.5" y1="646.3906" y2="646.3906"/><text fill="#000000" font-family="sans-serif" font-size="13" lengthAdjust="spacingAndGlyphs" textLength="64" x="43.5" y="641.3247">[FIN, ACK]</text><text fill="#000000" font-family="sans-serif" font-size="11" lengthAdjust="spacingAndGlyphs" textLength="32" x="170.5" y="678.6011">0.072</text><polygon fill="#A80036" points="47.5,712.3281,37.5,716.3281,47.5,720.3281,43.5,716.3281" style="stroke: #A80036; stroke-width: 1.0;"/><line style="stroke: #A80036; stroke-width: 1.0;" x1="41.5" x2="335.5" y1="716.3281" y2="716.3281"/><text fill="#000000" font-family="sans-serif" font-size="13" lengthAdjust="spacingAndGlyphs" textLength="64" x="53.5" y="711.2622">[FIN, ACK]</text><!--MD5=[b90c846922785392e446d2b5311aaa86]
@startuml
participant "Client" as c
participant "Server" as s
... 0.000 ...
c -> s: [SYN]
... 0.010 ...
c <- s: [SYN, ACK]
... 0.020 ...
c -> s: [ACK]
c -> s: Client Hello, Change Cipher Spec, PING
... 0.031 ...
c <- s: Server Hello, Change Cipher Spec, Finished
... 0.042 ...
c -> s: End of Early Data, Finished
... 0.052 ...
c <- s: New Session Ticket
c <- s: PONG
c <- s: Alert: Close Notify
... 0.062 ...
c -> s: Alert: Close Notify
c -> s: [FIN, ACK]
... 0.072 ...
c <- s: [FIN, ACK]
@enduml

PlantUML version 1.2020.01(Sun Feb 16 18:40:32 CET 2020)
(GPL source distribution)
Java Runtime: OpenJDK Runtime Environment
JVM: OpenJDK 64-Bit Server VM
Java Version: 11.0.7+10-post-Ubuntu-2ubuntu218.04
Operating System: Linux
Default Encoding: UTF-8
Language: en
Country: US
--></g></svg>