<?xml version="1.0" encoding="UTF-8" standalone="no"?><svg xmlns="http://www.w3.org/2000/svg" xmlns:xlink="http://www.w3.org/1999/xlink" contentScriptType="application/ecmascript" contentStyleType="text/css" height="803px" preserveAspectRatio="none" style="width:334px;height:803px;" version="1.1" viewBox="0 0 334 803" width="334px" zoomAndPan="magnify"><defs><filter height="300%" id="f7umygbepotir" width="300%" x="-1" y="-1"><feGaussianBlur result="blurOut" stdDeviation="2.0"/><feColorMatrix in="blurOut" result="blurOut2" type="matrix" values="0 0 0 0 0 0 0 0 0 0 0 0 0 0 0 0 0 0 .4 0"/><feOffset dx="4.0" dy="4.0" in="blurOut2" result="blurOut3"/><feBlend in="SourceGraphic" in2="blurOut3" mode="normal"/></filter></defs><g><line style="stroke: #A80036; stroke-width: 1.0;" x1="36" x2="36" y1="38.2969" y2="48.2969"/><line style="stroke: #A80036; stroke-width: 1.0; stroke-dasharray: 1.0,4.0;" x1="36" x2="36" y1="48.2969" y2="89.1016"/><line style="stroke: #A80036; stroke-width: 1.0;" x1="36" x2="36" y1="89.1016" y2="118.2344"/><line style="stroke: #A80036; stroke-width: 1.0; stroke-dasharray: 1.0,4.0;" x1="36" x2="36" y1="118.2344" y2="159.0391"/><line style="stroke: #A80036; stroke-width: 1.0;" x1="36" x2="36" y1="159.0391" y2="188.1719"/><line style="stroke: #A80036; stroke-width: 1.0; stroke-dasharray: 1.0,4.0;" x1="36" x2="36" y1="188.1719" y2="228.9766"/><line style="stroke: #A80036; stroke-width: 1.0;" x1="36" x2="36" y1="228.9766" y2="258.1094"/><line style="stroke: #A80036; stroke-width: 1.0; stroke-dasharray: 1.0,4.0;" x1="36" x2="36" y1="258.1094" y2="298.9141"/><line style="stroke: #A80036; stroke-width: 1.0;" x1="36" x2="36" y1="298.9141" y2="328.0469"/><line style="stroke: #A80036; stroke-width: 1.0; stroke-dasharray: 1.0,4.0;" x1="36" x2="36" y1="328.0469" y2="368.8516"/><line style="stroke: #A80036; stroke-width: 1.0;" x1="36" x2="36" y1="368.8516" y2="427.1172"/><line style="stroke: #A80036; stroke-width: 1.0; stroke-dasharray: 1.0,4.0;" x1="36" x2="36" y1="427.1172" y2="467.9219"/><line style="stroke: #A80036; stroke-width: 1.0;" x1="36" x2="36" y1="467.9219" y2="584.4531"/><line style="stroke: #A80036; stroke-width: 1.0; stroke-dasharray: 1.0,4.0;" x1="36" x2="36" y1="584.4531" y2="625.2578"/><line style="stroke: #A80036; stroke-width: 1.0;" x1="36" x2="36" y1="625.2578" y2="683.5234"/><line style="stroke: #A80036; stroke-width: 1.0; stroke-dasharray: 1.0,4.0;" x1="36" x2="36" y1="683.5234" y2="724.3281"/><line style="stroke: #A80036; stroke-width: 1.0;" x1="36" x2="36" y1="724.3281" y2="763.4609"/><line style="stroke: #A80036; stroke-width: 1.0;" x1="296.5" x2="296.5" y1="38.2969" y2="48.2969"/><line style="stroke: #A80036; stroke-width: 1.0; stroke-dasharray: 1.0,4.0;" x1="296.5" x2="296.5" y1="48.2969" y2="89.1016"/><line style="stroke: #A80036; stroke-width: 1.0;" x1="296.5" x2="296.5" y1="89.1016" y2="118.2344"/><line style="stroke: #A80036; stroke-width: 1.0; stroke-dasharray: 1.0,4.0;" x1="296.5" x2="296.5" y1="118.2344" y2="159.0391"/><line style="stroke: #A80036; stroke-width: 1.0;" x1="296.5" x2="296.5" y1="159.0391" y2="188.1719"/><line style="stroke: #A80036; stroke-width: 1.0; stroke-dasharray: 1.0,4.0;" x1="296.5" x2="296.5" y1="188.1719" y2="228.9766"/><line style="stroke: #A80036; stroke-width: 1.0;" x1="296.5" x2="296.5" y1="228.9766" y2="258.1094"/><line style="stroke: #A80036; stroke-width: 1.0; stroke-dasharray: 1.0,4.0;" x1="296.5" x2="296.5" y1="258.1094" y2="298.9141"/><line style="stroke: #A80036; stroke-width: 1.0;" x1="296.5" x2="296.5" y1="298.9141" y2="328.0469"/><line style="stroke: #A80036; stroke-width: 1.0; stroke-dasharray: 1.0,4.0;" x1="296.5" x2="296.5" y1="328.0469" y2="368.8516"/><line style="stroke: #A80036; stroke-width: 1.0;" x1="296.5" x2="296.5" y1="368.8516" y2="427.1172"/><line style="stroke: #A80036; stroke-width: 1.0; stroke-dasharray: 1.0,4.0;" x1="296.5" x2="296.5" y1="427.1172" y2="467.9219"/><line style="stroke: #A80036; stroke-width: 1.0;" x1="296.5" x2="296.5" y1="467.9219" y2="584.4531"/><line style="stroke: #A80036; stroke-width: 1.0; stroke-dasharray: 1.0,4.0;" x1="296.5" x2="296.5" y1="584.4531" y2="625.2578"/><line style="stroke: #A80036; stroke-width: 1.0;" x1="296.5" x2="296.5" y1="625.2578" y2="683.5234"/><line style="stroke: #A80036; stroke-width: 1.0; stroke-dasharray: 1.0,4.0;" x1="296.5" x2="296.5" y1="683.5234" y2="724.3281"/><line style="stroke: #A80036; stroke-width: 1.0;" x1="296.5" x2="296.5" y1="724.3281" y2="763.4609"/><rect fill="#FEFECE" filter="url(#f7umygbepotir)" height="30.2969" style="stroke: #A80036; stroke-width: 1.5;" width="53" x="8" y="3"/><text fill="#000000" font-family="sans-serif" font-size="14" lengthAdjust="spacingAndGlyphs" textLength="39" x="15" y="22.9951">Client</text><rect fill="#FEFECE" filter="url(#f7umygbepotir)" height="30.2969" style="stroke: #A80036; stroke-width: 1.5;" width="53" x="8" y="762.4609"/><text fill="#000000" font-family="sans-serif" font-size="14" lengthAdjust="spacingAndGlyphs" textLength="39" x="15" y="782.4561">Client</text><rect fill="#FEFECE" filter="url(#f7umygbepotir)" height="30.2969" style="stroke: #A80036; stroke-width: 1.5;" width="58" x="265.5" y="3"/><text fill="#000000" font-family="sans-serif" font-size="14" lengthAdjust="spacingAndGlyphs" textLength="44" x="272.5" y="22.9951">Server</text><rect fill="#FEFECE" filter="url(#f7umygbepotir)" height="30.2969" style="stroke: #A80036; stroke-width: 1.5;" width="58" x="265.5" y="762.4609"/><text fill="#000000" font-family="sans-serif" font-size="14" lengthAdjust="spacingAndGlyphs" textLength="44" x="272.5" y="782.4561">Server</text><text fill="#000000" font-family="sans-serif" font-size="11" lengthAdjust="spacingAndGlyphs" textLength="32" x="150.5" y="72.5073">0.000</text><polygon fill="#A80036" points="284.5,106.2344,294.5,110.2344,284.5,114.2344,288.5,110.2344" style="stroke: #A80036; stroke-width: 1.0;"/><line style="stroke: #A80036; stroke-width: 1.0;" x1="36.5" x2="290.5" y1="110.2344" y2="110.2344"/><text fill="#000000" font-family="sans-serif" font-size="13" lengthAdjust="spacingAndGlyphs" textLength="128" x="43.5" y="105.1685">[SYN] + Client-Hello</text><text fill="#000000" font-family="sans-serif" font-size="11" lengthAdjust="spacingAndGlyphs" textLength="32" x="150.5" y="142.4448">0.010</text><polygon fill="#A80036" points="47.5,176.1719,37.5,180.1719,47.5,184.1719,43.5,180.1719" style="stroke: #A80036; stroke-width: 1.0;"/><line style="stroke: #A80036; stroke-width: 1.0;" x1="41.5" x2="295.5" y1="180.1719" y2="180.1719"/><text fill="#000000" font-family="sans-serif" font-size="13" lengthAdjust="spacingAndGlyphs" textLength="66" x="53.5" y="175.106">[SYN,ACK]</text><text fill="#000000" font-family="sans-serif" font-size="11" lengthAdjust="spacingAndGlyphs" textLength="32" x="150.5" y="212.3823">0.017</text><polygon fill="#A80036" points="47.5,246.1094,37.5,250.1094,47.5,254.1094,43.5,250.1094" style="stroke: #A80036; stroke-width: 1.0;"/><line style="stroke: #A80036; stroke-width: 1.0;" x1="41.5" x2="295.5" y1="250.1094" y2="250.1094"/><text fill="#000000" font-family="sans-serif" font-size="13" lengthAdjust="spacingAndGlyphs" textLength="236" x="53.5" y="245.0435">Server Hello, Change Cipher Spec, ...</text><text fill="#000000" font-family="sans-serif" font-size="11" lengthAdjust="spacingAndGlyphs" textLength="32" x="150.5" y="282.3198">0.019</text><polygon fill="#A80036" points="284.5,316.0469,294.5,320.0469,284.5,324.0469,288.5,320.0469" style="stroke: #A80036; stroke-width: 1.0;"/><line style="stroke: #A80036; stroke-width: 1.0;" x1="36.5" x2="290.5" y1="320.0469" y2="320.0469"/><text fill="#000000" font-family="sans-serif" font-size="13" lengthAdjust="spacingAndGlyphs" textLength="36" x="43.5" y="314.981">[ACK]</text><text fill="#000000" font-family="sans-serif" font-size="11" lengthAdjust="spacingAndGlyphs" textLength="32" x="150.5" y="352.2573">0.029</text><polygon fill="#A80036" points="284.5,385.9844,294.5,389.9844,284.5,393.9844,288.5,389.9844" style="stroke: #A80036; stroke-width: 1.0;"/><line style="stroke: #A80036; stroke-width: 1.0;" x1="36.5" x2="290.5" y1="389.9844" y2="389.9844"/><text fill="#000000" font-family="sans-serif" font-size="13" lengthAdjust="spacingAndGlyphs" textLength="190" x="43.5" y="384.9185">Change Cipher Spec, Finished</text><polygon fill="#A80036" points="284.5,415.1172,294.5,419.1172,284.5,423.1172,288.5,419.1172" style="stroke: #A80036; stroke-width: 1.0;"/><line style="stroke: #A80036; stroke-width: 1.0;" x1="36.5" x2="290.5" y1="419.1172" y2="419.1172"/><text fill="#000000" font-family="sans-serif" font-size="13" lengthAdjust="spacingAndGlyphs" textLength="31" x="43.5" y="414.0513">PING</text><text fill="#000000" font-family="sans-serif" font-size="11" lengthAdjust="spacingAndGlyphs" textLength="32" x="150.5" y="451.3276">0.039</text><polygon fill="#A80036" points="47.5,485.0547,37.5,489.0547,47.5,493.0547,43.5,489.0547" style="stroke: #A80036; stroke-width: 1.0;"/><line style="stroke: #A80036; stroke-width: 1.0;" x1="41.5" x2="295.5" y1="489.0547" y2="489.0547"/><text fill="#000000" font-family="sans-serif" font-size="13" lengthAdjust="spacingAndGlyphs" textLength="122" x="53.5" y="483.9888">New Session Ticket</text><polygon fill="#A80036" points="47.5,514.1875,37.5,518.1875,47.5,522.1875,43.5,518.1875" style="stroke: #A80036; stroke-width: 1.0;"/><line style="stroke: #A80036; stroke-width: 1.0;" x1="41.5" x2="295.5" y1="518.1875" y2="518.1875"/><text fill="#000000" font-family="sans-serif" font-size="13" lengthAdjust="spacingAndGlyphs" textLength="122" x="53.5" y="513.1216">New Session Ticket</text><polygon fill="#A80036" points="47.5,543.3203,37.5,547.3203,47.5,551.3203,43.5,547.3203" style="stroke: #A80036; stroke-width: 1.0;"/><line style="stroke: #A80036; stroke-width: 1.0;" x1="41.5" x2="295.5" y1="547.3203" y2="547.3203"/><text fill="#000000" font-family="sans-serif" font-size="13" lengthAdjust="spacingAndGlyphs" textLength="38" x="53.5" y="542.2544">PONG</text><polygon fill="#A80036" points="47.5,572.4531,37.5,576.4531,47.5,580.4531,43.5,576.4531" style="stroke: #A80036; stroke-width: 1.0;"/><line style="stroke: #A80036; stroke-width: 1.0;" x1="41.5" x2="295.5" y1="576.4531" y2="576.4531"/><text fill="#000000" font-family="sans-serif" font-size="13" lengthAdjust="spacingAndGlyphs" textLength="114" x="53.5" y="571.3872">Alert: Close Notify</text><text fill="#000000" font-family="sans-serif" font-size="11" lengthAdjust="spacingAndGlyphs" textLength="32" x="150.5" y="608.6636">0.049</text><polygon fill="#A80036" points="284.5,642.3906,294.5,646.3906,284.5,650.3906,288.5,646.3906" style="stroke: #A80036; stroke-width: 1.0;"/><line style="stroke: #A80036; stroke-width: 1.0;" x1="36.5" x2="290.5" y1="646.3906" y2="646.3906"/><text fill="#000000" font-family="sans-serif" font-size="13" lengthAdjust="spacingAndGlyphs" textLength="114" x="43.5" y="641.3247">Alert: Close Notify</text><polygon fill="#A80036" points="284.5,671.5234,294.5,675.5234,284.5,679.5234,288.5,675.5234" style="stroke: #A80036; stroke-width: 1.0;"/><line style="stroke: #A80036; stroke-width: 1.0;" x1="36.5" x2="290.5" y1="675.5234" y2="675.5234"/><text fill="#000000" font-family="sans-serif" font-size="13" lengthAdjust="spacingAndGlyphs" textLength="60" x="43.5" y="670.4575">[FIN,ACK]</text><text fill="#000000" font-family="sans-serif" font-size="11" lengthAdjust="spacingAndGlyphs" textLength="32" x="150.5" y="707.7339">0.059</text><polygon fill="#A80036" points="47.5,741.4609,37.5,745.4609,47.5,749.4609,43.5,745.4609" style="stroke: #A80036; stroke-width: 1.0;"/><line style="stroke: #A80036; stroke-width: 1.0;" x1="41.5" x2="295.5" y1="745.4609" y2="745.4609"/><text fill="#000000" font-family="sans-serif" font-size="13" lengthAdjust="spacingAndGlyphs" textLength="60" x="53.5" y="740.395">[FIN,ACK]</text><!--MD5=[4738b09e61d6a1540cbe94a72a14e923]
@startuml
participant "Client" as c
participant "Server" as s
... 0.000 ...
c -> s: [SYN] + Client-Hello
... 0.010 ...
c <- s: [SYN,ACK]
... 0.017 ...
c <- s: Server Hello, Change Cipher Spec, ...
... 0.019 ...
c -> s: [ACK]
... 0.029 ...
c -> s: Change Cipher Spec, Finished
c -> s: PING
... 0.039 ...
c <- s: New Session Ticket
c <- s: New Session Ticket
c <- s: PONG
c <- s: Alert: Close Notify
... 0.049 ...
c -> s: Alert: Close Notify
c -> s: [FIN,ACK]
... 0.059 ...
c <- s: [FIN,ACK]
@enduml

PlantUML version 1.2020.01(Sun Feb 16 18:40:32 CET 2020)
(GPL source distribution)
Java Runtime: OpenJDK Runtime Environment
JVM: OpenJDK 64-Bit Server VM
Java Version: 11.0.7+10-post-Ubuntu-2ubuntu218.04
Operating System: Linux
Default Encoding: UTF-8
Language: en
Country: US
--></g></svg>